<?xml version="1.0" standalone="no"?>
<!DOCTYPE svg PUBLIC "-//W3C//DTD SVG 20010904//EN"
 "http://www.w3.org/TR/2001/REC-SVG-20010904/DTD/svg10.dtd">
<svg version="1.0" xmlns="http://www.w3.org/2000/svg"
 width="310.000000pt" height="310.000000pt" viewBox="0 0 310.000000 310.000000"
 preserveAspectRatio="xMidYMid meet">
<metadata>
Created by potrace 1.14, written by Peter Selinger 2001-2017
</metadata>
<g transform="translate(0.000000,310.000000) scale(0.100000,-0.100000)"
fill="#000000" stroke="none">
<path d="M1020 2787 c-148 -42 -257 -150 -311 -305 -33 -96 -41 -142 -45 -271
-2 -69 -5 -125 -7 -126 -100 -47 -241 -147 -297 -211 -243 -277 -156 -597 222
-819 l83 -48 1 -116 c2 -352 170 -575 445 -587 135 -6 275 36 428 129 54 32
66 36 80 25 21 -17 53 -35 131 -74 190 -93 379 -106 522 -34 57 28 137 104
172 164 68 117 94 248 96 489 0 9 6 17 13 17 28 0 202 124 267 190 71 72 135
180 148 251 11 61 5 164 -13 220 -42 129 -164 261 -336 364 l-84 50 -1 116
c-4 439 -276 673 -649 558 -72 -22 -208 -86 -257 -121 -28 -19 -28 -19 -55 0
-164 114 -418 178 -553 139z m253 -82 c60 -15 206 -80 240 -107 17 -12 11 -19
-68 -88 -71 -61 -186 -178 -238 -243 -7 -8 -41 -20 -77 -26 -97 -18 -205 -48
-299 -82 -60 -23 -85 -28 -90 -20 -4 7 -6 46 -4 89 18 374 224 557 536 477z
m931 -6 c156 -58 250 -234 259 -488 l4 -89 -66 26 c-79 30 -206 67 -317 90
l-80 17 -70 80 c-39 44 -104 109 -145 145 -41 36 -84 75 -97 86 l-24 21 64 36
c178 99 341 126 472 76z m-550 -200 c54 -43 122 -107 196 -183 l45 -47 -100 7
c-131 9 -255 9 -385 0 l-105 -7 35 37 c79 83 243 232 259 234 2 0 26 -18 55
-41z m210 -303 c114 -13 103 -4 221 -181 84 -126 165 -275 214 -389 l33 -80
-43 -95 c-100 -221 -299 -536 -341 -538 -7 -1 -47 -5 -88 -10 -96 -10 -421
-10 -525 0 -44 5 -90 15 -101 22 -72 46 -375 585 -359 637 17 52 92 209 143
298 75 130 190 298 216 315 12 8 55 17 96 21 41 3 76 8 78 9 9 8 371 0 456 -9z
m-782 -93 c-77 -114 -144 -227 -196 -335 -30 -60 -57 -105 -60 -100 -8 14 -65
235 -71 282 -16 109 -24 95 73 130 95 34 246 78 275 79 14 1 11 -10 -21 -56z
m1118 32 c52 -14 132 -39 177 -56 l81 -31 -5 -37 c-5 -40 -20 -124 -27 -158
-8 -38 -48 -178 -53 -187 -3 -4 -23 28 -44 73 -43 93 -130 243 -201 349 -27
40 -43 72 -36 72 7 0 56 -11 108 -25z m-1509 -237 c10 -57 36 -159 58 -227
l39 -122 -29 -85 c-33 -98 -33 -96 -61 -234 -31 -157 -20 -148 -113 -91 -106
65 -203 163 -243 244 -91 184 -37 362 158 519 54 43 162 110 168 103 2 -2 13
-51 23 -107z m1949 49 c199 -137 288 -299 254 -466 -23 -110 -92 -205 -217
-300 -59 -44 -147 -97 -147 -89 0 2 -7 39 -16 83 -8 44 -18 93 -21 109 -2 16
-22 82 -43 148 l-38 120 24 69 c26 76 69 240 79 304 14 91 11 87 48 69 17 -9
52 -31 77 -47z m-1602 -882 c44 -66 77 -121 73 -123 -12 -4 -194 45 -283 78
-83 30 -88 33 -84 58 3 15 7 47 11 72 8 53 51 227 65 266 10 25 14 19 75 -102
35 -71 100 -183 143 -249z m1371 245 c16 -63 33 -137 36 -165 4 -27 8 -60 10
-72 3 -19 -7 -26 -83 -53 -88 -32 -256 -80 -280 -80 -7 0 10 33 37 74 68 100
184 304 212 372 13 30 26 51 30 47 4 -5 21 -60 38 -123z m54 -427 c-14 -440
-295 -620 -678 -433 -131 63 -129 55 -36 134 68 57 195 186 244 248 6 9 30 19
52 22 112 19 377 97 399 117 18 16 22 -2 19 -88z m-1598 47 c79 -27 131 -42
198 -55 10 -2 26 -6 35 -9 9 -3 35 -8 57 -12 31 -5 48 -15 74 -47 51 -63 238
-244 272 -264 16 -9 29 -21 29 -25 0 -14 -134 -82 -219 -111 -211 -72 -405
-13 -494 152 -23 41 -63 142 -65 161 0 3 -3 25 -6 50 -4 25 -8 80 -10 123 -5
92 -17 88 129 37z m740 -112 c61 0 151 3 200 7 l90 6 -40 -42 c-62 -66 -146
-144 -203 -190 l-52 -41 -52 42 c-54 42 -145 128 -208 194 l-34 36 94 -6 c52
-3 145 -6 205 -6z"/>
<path d="M1571 2060 c-5 -3 -9 -36 -9 -75 l0 -70 37 1 36 1 0 73 c0 73 0 73
-28 74 -15 1 -32 -1 -36 -4z"/>
<path d="M1237 1912 l-27 -28 48 -47 c26 -26 53 -47 59 -47 6 0 18 12 28 26
17 27 17 27 -32 76 l-49 49 -27 -29z"/>
<path d="M1887 1891 c-26 -27 -47 -52 -47 -57 0 -11 36 -44 48 -44 4 0 29 22
55 48 l47 48 -28 27 -28 27 -47 -49z"/>
<path d="M1505 1846 c-219 -68 -287 -354 -124 -516 64 -63 120 -85 219 -85
101 0 156 21 217 83 66 67 88 122 88 222 0 102 -21 154 -91 224 -78 77 -201
106 -309 72z"/>
<path d="M1092 1576 c-5 -6 -8 -22 -8 -36 1 -24 4 -25 74 -27 l72 -2 0 29 c0
17 -1 33 -2 38 -4 11 -127 10 -136 -2z"/>
<path d="M1974 1583 c-6 -2 -8 -19 -6 -38 l4 -35 68 1 c74 1 81 7 73 52 -5 26
-7 27 -68 25 -34 -1 -66 -3 -71 -5z"/>
<path d="M1257 1262 l-47 -48 28 -27 28 -27 48 50 c47 49 48 51 32 75 -9 14
-22 25 -29 25 -7 0 -34 -22 -60 -48z"/>
<path d="M1857 1290 c-9 -11 -17 -23 -17 -26 0 -4 21 -28 47 -55 l47 -49 28
27 28 27 -47 48 c-26 26 -52 48 -58 48 -6 0 -18 -9 -28 -20z"/>
<path d="M1564 1175 c-3 -7 -4 -41 -2 -76 l3 -64 35 0 35 0 0 75 0 75 -33 1
c-19 1 -36 -4 -38 -11z"/>
</g>
</svg>
