<svg width="30" height="31" viewBox="0 0 30 31" fill="none" xmlns="http://www.w3.org/2000/svg">
<g clip-path="url(#clip0_1_3)">
<rect width="30" height="31" fill="#FEFEFE"/>
<rect width="47" height="47" transform="translate(-8 -8)" fill="#FEFEFE"/>
<mask id="path-1-inside-1_1_3" fill="white">
<path d="M15.8672 19.1719H15.1328V20.6406H15.8672V19.1719Z"/>
</mask>
<path d="M15.8672 19.1719H15.1328V20.6406H15.8672V19.1719Z" fill="black"/>
<path d="M15.1328 19.1719V18.1719H14.1328V19.1719H15.1328ZM15.8672 19.1719H16.8672V18.1719H15.8672V19.1719ZM15.8672 20.6406V21.6406H16.8672V20.6406H15.8672ZM15.1328 20.6406H14.1328V21.6406H15.1328V20.6406ZM15.1328 20.1719H15.8672V18.1719H15.1328V20.1719ZM14.8672 19.1719V20.6406H16.8672V19.1719H14.8672ZM15.8672 19.6406H15.1328V21.6406H15.8672V19.6406ZM16.1328 20.6406V19.1719H14.1328V20.6406H16.1328Z" fill="black" mask="url(#path-1-inside-1_1_3)"/>
<path d="M15.8672 10.3594H15.1328V11.8281H15.8672V10.3594Z" fill="black"/>
<path d="M11.8281 15.1328H10.3594V15.8672H11.8281V15.1328Z" fill="black"/>
<path d="M20.6406 15.1328H19.1719V15.8672H20.6406V15.1328Z" fill="black"/>
<path d="M19.3932 18.8755L18.3541 17.8364L17.8348 18.3557L18.8739 19.3948L19.3932 18.8755Z" fill="black"/>
<path d="M13.162 12.6443L12.1229 11.6052L11.6036 12.1245L12.6427 13.1636L13.162 12.6443Z" fill="#080707"/>
<path d="M13.1636 18.3555L12.6443 17.8362L11.6052 18.8753L12.1245 19.3945L13.1636 18.3555Z" fill="#222222"/>
<path d="M19.3943 12.1245L18.875 11.6052L17.8359 12.6443L18.3552 13.1636L19.3943 12.1245Z" fill="black"/>
<path d="M20.1761 27.9917C18.8469 27.9917 17.3444 27.4832 15.7728 26.4809C13.3184 24.9158 10.9649 22.3187 9.146 19.1682C7.32714 16.0177 6.25477 12.6813 6.12644 9.77296C5.99443 6.77892 6.87807 4.578 8.61468 3.57521C10.3513 2.57242 12.6995 2.90784 15.2263 4.51906C17.6807 6.0842 20.0342 8.68132 21.8531 11.8318C23.6719 14.9823 24.7443 18.3187 24.8726 21.227C25.0046 24.2211 24.1208 26.422 22.3842 27.4246C21.7279 27.8037 20.9838 27.9917 20.1761 27.9917ZM10.8272 3.74264C10.1459 3.74264 9.52476 3.89778 8.98187 4.21118C7.49403 5.07003 6.74056 7.03374 6.8599 9.74047C6.98309 12.5329 8.02076 15.7508 9.78197 18.801C11.543 21.8512 13.8106 24.3586 16.1674 25.8617C18.4518 27.3185 20.529 27.6475 22.0168 26.7888C23.5047 25.9299 24.2582 23.9662 24.1388 21.2595C24.0156 18.467 22.978 15.2492 21.2167 12.199C19.4557 9.14875 17.1881 6.6414 14.8314 5.13832C13.3804 4.21301 12.013 3.74264 10.8272 3.74264Z" fill="black"/>
<path d="M10.8239 27.9918C10.0161 27.9918 9.27234 27.804 8.61581 27.4249C6.8792 26.4223 5.99556 24.2212 6.12738 21.2273C6.25571 18.319 7.32809 14.9823 9.14695 11.8321C10.9658 8.68178 13.3193 6.08466 15.7738 4.51934C18.3004 2.9083 20.6487 2.57251 22.3853 3.57548C24.122 4.57809 25.0056 6.77919 24.8738 9.77306C24.7454 12.6814 23.6731 16.018 21.8542 19.1683C20.0353 22.3186 17.6819 24.9157 15.2274 26.481C13.6558 27.4831 12.1533 27.9918 10.8239 27.9918ZM20.1729 3.74274C18.987 3.74274 17.6198 4.2131 16.1685 5.13842C13.8117 6.6415 11.5441 9.14884 9.7831 12.1991C8.02189 15.2493 6.98421 18.467 6.86102 21.2596C6.74169 23.9663 7.49515 25.93 8.983 26.7889C10.4705 27.6476 12.5478 27.3186 14.8325 25.8617C17.1893 24.3587 19.4568 21.8513 21.2179 18.8011C22.9791 15.7509 24.0168 12.5332 24.1399 9.74056C24.2593 7.03384 23.5058 5.07012 22.018 4.21127C21.4755 3.89806 20.854 3.74274 20.1729 3.74274Z" fill="black"/>
<path d="M15.5 22.8364C11.8623 22.8364 8.43641 22.0967 5.8538 20.7537C3.19481 19.3711 1.73047 17.5052 1.73047 15.5C1.73047 13.4948 3.19481 11.6289 5.8538 10.2463C8.43641 8.90327 11.8623 8.16357 15.5 8.16357C19.1377 8.16357 22.5636 8.90327 25.1462 10.2463C27.8052 11.6289 29.2695 13.4948 29.2695 15.5C29.2695 17.5052 27.8052 19.3711 25.1462 20.7537C22.5636 22.0967 19.1377 22.8364 15.5 22.8364ZM15.5 8.89795C8.31249 8.89795 2.46484 11.8595 2.46484 15.5C2.46484 19.1405 8.31249 22.102 15.5 22.102C22.6875 22.102 28.5352 19.1405 28.5352 15.5C28.5352 11.8595 22.6875 8.89795 15.5 8.89795Z" fill="black"/>
<path d="M15.5 18.2539C17.0209 18.2539 18.2539 17.0209 18.2539 15.5C18.2539 13.9791 17.0209 12.7461 15.5 12.7461C13.9791 12.7461 12.7461 13.9791 12.7461 15.5C12.7461 17.0209 13.9791 18.2539 15.5 18.2539Z" fill="#56988E"/>
<path d="M15.5 18.6211C13.779 18.6211 12.3789 17.221 12.3789 15.5C12.3789 13.779 13.779 12.3789 15.5 12.3789C17.221 12.3789 18.6211 13.779 18.6211 15.5C18.6211 17.221 17.221 18.6211 15.5 18.6211ZM15.5 13.1133C14.184 13.1133 13.1133 14.184 13.1133 15.5C13.1133 16.816 14.184 17.8867 15.5 17.8867C16.816 17.8867 17.8867 16.816 17.8867 15.5C17.8867 14.184 16.816 13.1133 15.5 13.1133Z" fill="#56988E"/>
</g>
<defs>
<clipPath id="clip0_1_3">
<rect width="30" height="31" fill="white"/>
</clipPath>
</defs>
</svg>
